<svg xmlns="http://www.w3.org/2000/svg" width="48" height="48" viewBox="0 0 48 48"><path fill-rule="evenodd" clip-rule="evenodd" d="M46.996 24.983v.02c0 .32-.16.594-.395.777L27.663 44.72c-.38.38-.998.38-1.38 0-.382-.383-.382-1 0-1.382l18.714-18.715v-6.62c0-.55.45-1 1-1 .553 0 1 .45 1 1v6.98zm-27.19 21.592c-.032.048-.053.102-.095.144-.196.195-.456.286-.714.28-.258.006-.518-.085-.715-.28-.04-.043-.06-.097-.094-.145L1.426 29.813c-.05-.032-.102-.053-.145-.095-.196-.197-.285-.456-.28-.714-.006-.258.084-.518.28-.715.044-.043.097-.063.145-.096L24.22 5.398c.184-.234.456-.395.776-.395h4.057c.132-1.502.745-2.82 1.67-3.683l.015.018c.195-.207.463-.335.758-.335.592 0 1.072.512 1.072 1.143 0 .375-.18.69-.44.9-.48.44-.82 1.138-.935 1.957h4.803c.32 0 .594.16.775.395l5.83 5.83c.235.183.396.456.396.776V23.004c0 .32-.16.594-.395.776L19.807 46.574zm21.19-34.19l-5.38-5.38H31.4c.176.443.424.82.725 1.1.04.032.092.052.127.09l.018-.017c1.04.973 1.725 2.508 1.725 4.254 0 .042-.01.08-.012.12 1.197.69 2.012 1.97 2.012 3.452 0 2.21-1.79 4-4 4s-4-1.79-4-4c0-2.147 1.695-3.885 3.82-3.982-.09-.888-.44-1.648-.95-2.118-.04-.033-.09-.053-.128-.092l-.017.018c-.744-.695-1.293-1.685-1.553-2.826h-3.793l-22 22 15.62 15.62 22-22v-10.24zm-10.13 2.576c.25-.228.452-.536.618-.882-.855.228-1.488 1-1.488 1.925 0 1.104.896 2 2 2 1.105 0 2-.896 2-2 0-.473-.17-.9-.445-1.244-.614 1.544-1.296 1.908-1.296 1.908-.193.207-.46.334-.758.334-.592 0-1.07-.512-1.07-1.143 0-.374.18-.69.44-.9zM12.283 27.29c.382-.382 1-.382 1.38 0l7.05 7.048c.38.38.38 1 0 1.38-.38.382-1 .382-1.38 0l-7.05-7.048c-.38-.38-.38-1 0-1.38zm4-4c.382-.382 1-.382 1.38 0l7.05 7.048c.38.38.38 1 0 1.38-.38.382-1 .382-1.38 0l-7.05-7.048c-.38-.38-.38-1 0-1.38z"/></svg>