<svg xmlns="http://www.w3.org/2000/svg" width="48" height="48" viewBox="0 0 48 48"><path fill-rule="evenodd" clip-rule="evenodd" d="M47 40c0 2.762-2.238 5-5 5H6c-2.762 0-5-2.238-5-5V11c0-2.21 1.79-4 4-4h20.17l8.1-2.934c.513-.187 1.08.078 1.268.59L35.39 7H39c2.21 0 4 1.79 4 4v2c2.21 0 4 1.79 4 4v23zM5 9c-1.104 0-2 .896-2 2s.896 2 2 2h3.635c.012-.005.02-.016.033-.02L19.65 9H5zm29.078.18l-1.062-2.923L30.963 7h.003l-5.514 2h-.01l-11.04 4h21.063l-1.388-3.82zM41 11c0-1.104-.896-2-2-2h-2.883l1.454 4H41v-2zm2 4H5c-.732 0-1.41-.21-2-.555V40c0 1.657 1.344 3 3 3h36c1.657 0 3-1.343 3-3v-7h-4c-2.21 0-4-1.79-4-4s1.79-4 4-4h4v-8c0-1.104-.896-2-2-2zm2 16v-4h-4c-1.104 0-2 .896-2 2s.896 2 2 2h4zm-4-3h2v2h-2v-2z"/></svg>