<svg width="282" height="267" viewBox="0 0 282 267" xmlns="http://www.w3.org/2000/svg"><title>Imported Layers</title><path d="M224.803 265.424v.017c-2.135.816-12.12 2.317-18.736-.106-9.006-3.29-15.845-11.747-25.355-19.23-4.448-3.488-7.38-8.565-14.036-9.435-2.565-.325-2.82-6.288-1.7-9.09.69-1.754 4.232-2.313 3.98-3.887-.325-2.022-4.56-1.804-4.777-3.83-.65-7.12-.22-15.344 1.194-21.47 1.05-4.465 3.185-7.32 3.112-10.245-.11-3.165-3.76-5.66-5.68-5.66-10.31 0-10.596 15.488-21.195 22.065-7.235 4.505-27.814-7.806-35.446-9.017 0 0 0-28.806.107-44.094 0 0-3.905-.597-7.918-.708-4.34-.124-11.504 1.14-14.36-2.53-1.844-2.367-3.765-8.33-3.11-13.893 0 0-15.232-10.556-25.72-18.49-3.364-2.513-7.632-2.837-9.728-5.946-5.136-7.61-5.353-18.9-6.403-25.61-.54-3.486-17.505-3.307-27.635-9.812C5.5 70.655 1.305 67.06.293 58.584c-.397-3.306-.47-12.09.29-14.836.828-2.837 4.158-3.758 4.34-7.52.325-5.836-1.702-12.994.577-14.188C20.475 14.328 51.183-2.03 75.745.21h.034c-.47.29-.76.613-.76 1.03.11 8.007 12.878 20.894 30.06 20.894 17.18 0 36.06-4.61 36.06-9.29 0-.325-.07-.888-.255-1.464l2.134-.597c.832 1.14 1.81 2.222 4.268 2.513 2.173.234 2.57-3.434 5.464-3.942 3.398-.58 8.862-.324 13.237-1.263 3.615-.796 6.184-2.84 8.827-2.84 9.365-.034 17.433 3.11 19.31 4.215 7.817 4.59 11.287 18.9 20.333 25.662 9.617 7.158 24.664 6.868 28.97 14.584 1.196 2.117 1.845 10.554.146 15.093-.87 2.367-2.313.218-3.15 3.25-3.398 12.49-1.375 32.748 3.62 37.862 6.548 6.706 12.622 5.878 19.857 6.454 2.638.217 2.062.25 5.79.25 0 0 1.19 5.584 1.698 6.182.94 1.05 2.677.362 3.4 1.88 2.205 4.552 1.155 12.977 2.17 18.65.98 5.673 4.014 8.638 3.98 14.098-.04 5.35 1.664 10.084-1.196 14.132-4.447 6.343-10.09 8.42-13.31 15.143-.435.943.04 2.747.795 5.136-.108-.29-.18-.58-.287-.87-.11 0-12.41.146-17.69.146-3.11 0-14.36 7.917-19.06 14.08-3.038 3.955-6.044 7.533-7.525 12.524-1.7 5.673-.217 12.976-.217 22.062 0 2.406 4.124-.375 4.27 1.937.255 3.684-.325 7.353.144 10.953.218 1.48-4.883-.69-4.63.76.76 4.37-.215 10.642 1.373 14.796.218.563.653.96 1.196 1.194" fill="#FFF" fill-rule="evenodd"/></svg>