<svg width="301" height="209" viewBox="0 0 301 209" xmlns="http://www.w3.org/2000/svg"><title>Shape</title><path d="M273.92 208.7H26.086C11.68 208.7 0 197.02 0 182.612V26.087C0 11.68 11.68 0 26.087 0H273.92c14.406 0 26.086 11.68 26.086 26.087v156.525c0 14.407-11.68 26.088-26.087 26.088zM13.043 84.784h273.918V58.697H13.044v26.087zm273.918-58.697c0-7.2-5.843-13.043-13.043-13.043H26.086c-7.2 0-13.043 5.843-13.043 13.043v19.566h273.918V26.087zm0 71.74H13.044v84.785c0 7.2 5.843 13.044 13.043 13.044H273.92c7.2 0 13.042-5.843 13.042-13.044V97.828zM163.047 136.96H136.96c-3.607 0-6.523-2.916-6.523-6.523 0-3.6 2.916-6.52 6.522-6.52h26.087c3.606 0 6.522 2.92 6.522 6.52 0 3.607-2.917 6.522-6.523 6.522zm-58.697 0H45.653c-3.606 0-6.522-2.916-6.522-6.523 0-3.6 2.917-6.52 6.523-6.52h58.697c3.607 0 6.522 2.92 6.522 6.52 0 3.607-2.915 6.522-6.522 6.522zm-58.697 19.565h39.13c3.608 0 6.523 2.922 6.523 6.522 0 3.606-2.915 6.522-6.522 6.522h-39.13c-3.607 0-6.523-2.917-6.523-6.523 0-3.6 2.917-6.522 6.523-6.522z" fill="#FFF" fill-rule="evenodd"/></svg>