<svg width="640" height="480" xmlns="http://www.w3.org/2000/svg"><title>Aqua &amp; Pink Owl</title><title>Layer 1</title><path fill="#77360a" d="M364.305 137.415l4.233 27.91-6.623 22.046-24.46-9.504 26.85-40.45zM264.056 137.967l-3.584 28.086 7.25 21.848 24.51-10.343-28.176-39.59z"/><ellipse fill="#ffaad4" cx="313.75" cy="235.5" rx="57.25" ry="77"/><ellipse fill="#916237" cx="345.771" cy="248.29" rx="28.219" ry="44.443" transform="rotate(128.204 345.77 248.29)"/><ellipse fill="#916237" cx="288.311" cy="248.932" rx="30.471" ry="46.999" transform="rotate(56.126 288.31 248.932)"/><ellipse fill="#54cea9" cx="313" cy="237" rx="47" ry="66"/><ellipse fill="#f74cf7" cx="322" cy="155" ry="40"/><ellipse fill="#2dbcab" cx="312.003" cy="197.012" rx="39.987" ry="56.013" transform="rotate(89.514 312.003 197.012)"/><circle fill="#fff" stroke="#000" stroke-width="2" cx="290" cy="197.5" r="24.367"/><circle fill="#fff" stroke="#000" stroke-width="2" cx="336" cy="197.5" r="24.367"/><circle cx="285.25" cy="194.75" r="14.375"/><circle cx="332" cy="195.25" r="14.625"/><path fill="#ff7f00" d="M300.176 216.32l12.56-10.353 13.614 7.726-12.09 20.393"/><ellipse fill="#ff007f" cx="279.5" cy="257.5" rx="4.5" ry="4.5"/><ellipse fill="#ff007f" cx="300.5" cy="256.5" rx="4.5" ry="4.5"/><ellipse fill="#ff007f" cx="299.5" cy="277.5" rx="4.5" ry="4.5"/><ellipse fill="#ff007f" cx="321.5" cy="257.5" rx="4.5" ry="4.5"/><ellipse fill="#ff007f" cx="343.5" cy="258.5" rx="4.5" ry="4.5"/><ellipse fill="#ff007f" cx="323.5" cy="277.5" rx="4.5" ry="4.5"/><ellipse fill="#fff" cx="281" cy="191.5" rx="3" ry="3.5"/><ellipse fill="#fff" cx="328" cy="192" rx="3" ry="3.5"/><ellipse fill="#512f0e" cx="294.5" cy="314" rx="3.5" ry="8"/><ellipse fill="#512f0e" cx="298.5" cy="315" rx="3.5" ry="8" transform="rotate(-3.18 298.5 315)"/><ellipse fill="#512f0e" cx="290.5" cy="314" rx="3.5" ry="8" transform="rotate(3.18 290.5 314)"/><ellipse fill="#512f0e" cx="327.5" cy="316" rx="3.5" ry="8" transform="rotate(6.654 327.5 316)"/><ellipse fill="#512f0e" cx="332.5" cy="315" rx="3.5" ry="8"/><ellipse fill="#512f0e" cx="335.5" cy="314" rx="3.5" ry="8" transform="rotate(-6.242 335.5 314)"/><path fill="#fff" d="M271 162h2v5h-2z"/><path fill="#ffa" d="M386 218.5h2v5h-2z"/><path fill="#fff" d="M357 160.5h3v6h-3z"/></svg>