<svg width="294" height="294" viewBox="0 0 294 294" xmlns="http://www.w3.org/2000/svg"><title>Shape</title><path d="M293.974 153.083v.134c0 2.043-1.02 3.785-2.52 4.953L170.565 279.057c-2.432 2.432-6.37 2.432-8.815 0-2.43-2.438-2.43-6.383 0-8.814l119.46-119.458v-42.25c0-3.522 2.864-6.382 6.38-6.382 3.53 0 6.384 2.86 6.384 6.383v44.547zM120.42 290.903c-.203.308-.337.652-.605.92-1.258 1.25-2.917 1.832-4.564 1.794-1.646.038-3.305-.543-4.563-1.794-.268-.268-.396-.612-.606-.92L3.097 183.914c-.307-.204-.645-.34-.92-.607C.92 182.05.352 180.396.384 178.75c-.038-1.648.536-3.307 1.794-4.565.274-.268.612-.396.92-.606L148.6 28.07c1.168-1.493 2.904-2.52 4.947-2.52h25.889c.85-9.588 4.762-18 10.66-23.51l.102.115C191.445.837 193.155.02 195.038.02c3.78 0 6.843 3.267 6.843 7.295 0 2.394-1.148 4.41-2.814 5.738-3.057 2.82-5.234 7.27-5.962 12.498h30.658c2.042 0 3.79 1.022 4.947 2.522l37.21 37.213c1.495 1.168 2.523 2.91 2.523 4.953V140.45c0 2.044-1.022 3.786-2.522 4.948l-145.5 145.506zM255.678 72.67L221.33 38.323h-26.892c1.124 2.834 2.707 5.247 4.628 7.022.262.21.587.338.81.587l.115-.115c6.646 6.21 11.012 16.01 11.012 27.153 0 .268-.064.504-.076.766 7.64 4.41 12.842 12.575 12.842 22.034 0 14.1-11.432 25.532-25.532 25.532s-25.532-11.432-25.532-25.532c0-13.704 10.82-24.798 24.383-25.417-.574-5.668-2.815-10.52-6.057-13.52-.262-.21-.587-.337-.824-.586l-.102.115c-4.75-4.436-8.253-10.756-9.913-18.04h-24.21L15.556 178.75l99.696 99.695L255.678 138.02V72.67zm-64.654 16.443c1.583-1.462 2.88-3.428 3.94-5.636-5.46 1.455-9.5 6.383-9.5 12.287 0 7.047 5.72 12.766 12.767 12.766 7.053 0 12.766-5.72 12.766-12.766 0-3.02-1.085-5.75-2.84-7.94-3.926 9.86-8.28 12.185-8.28 12.185-1.23 1.32-2.942 2.13-4.838 2.13-3.778 0-6.83-3.268-6.83-7.295 0-2.38 1.143-4.398 2.815-5.732zm-118.627 78.69c2.438-2.433 6.383-2.433 8.815 0l44.994 44.993c2.432 2.432 2.432 6.376 0 8.815-2.432 2.433-6.383 2.433-8.815 0l-44.994-44.993c-2.432-2.432-2.432-6.377 0-8.815zm25.532-25.533c2.438-2.432 6.383-2.432 8.815 0l44.993 44.994c2.426 2.432 2.426 6.376 0 8.815-2.432 2.43-6.383 2.43-8.815 0L97.93 151.084c-2.432-2.432-2.432-6.376 0-8.815z" fill="#FFF" fill-rule="evenodd"/></svg>