<svg width="300" height="268" viewBox="0 0 300 268" xmlns="http://www.w3.org/2000/svg"><title>Shape</title><path d="M300 234.78c0 18.014-14.597 32.61-32.61 32.61H32.61C14.595 267.39 0 252.794 0 234.78V45.653c0-14.406 11.68-26.087 26.087-26.087h131.55L210.456.43c3.344-1.22 7.048.51 8.268 3.842l5.563 15.293h23.537c14.406 0 26.087 11.68 26.087 26.087v13.043c14.406 0 26.087 11.68 26.087 26.087v150zM26.086 32.61c-7.2 0-13.044 5.842-13.044 13.042s5.844 13.043 13.044 13.043h23.7c.084-.032.137-.104.22-.137l71.623-25.95H26.087zm189.638 1.18L208.8 14.72h-.008l-13.376 4.845h.02l-35.96 13.044h-.066L87.417 58.694h137.36l-9.052-24.906zm45.143 11.862c0-7.2-5.843-13.043-13.043-13.043h-18.802l9.482 26.085h22.363V45.652zm13.044 26.087H26.087c-4.774 0-9.196-1.377-13.044-3.62v166.66c0 10.808 8.766 19.567 19.566 19.567h234.78c10.806 0 19.565-8.76 19.565-19.566v-45.65h-26.087c-14.406 0-26.087-11.68-26.087-26.087s11.682-26.087 26.088-26.087h26.087V84.782c0-7.2-5.843-13.043-13.043-13.043zm13.043 104.346V150h-26.087c-7.2 0-13.043 5.843-13.043 13.043 0 7.2 5.843 13.043 13.043 13.043h26.087zm-26.087-19.565h13.044v13.044h-13.044V156.52z" fill="#FFF" fill-rule="evenodd"/></svg>