<?xml version="1.0" encoding="UTF-8" standalone="no"?>
<svg width="301px" height="209px" viewBox="0 0 301 209" version="1.1" xmlns="http://www.w3.org/2000/svg" xmlns:xlink="http://www.w3.org/1999/xlink" xmlns:sketch="http://www.bohemiancoding.com/sketch/ns">
    <!-- Generator: Sketch 3.3.2 (12043) - http://www.bohemiancoding.com/sketch -->
    <title>Shape</title>
    <desc>Created with Sketch.</desc>
    <defs></defs>
    <g id="Page-1" stroke="none" stroke-width="1" fill="none" fill-rule="evenodd" sketch:type="MSPage">
        <g id="card" sketch:type="MSLayerGroup" fill="#FFFFFF">
            <path d="M273.918746,208.699997 L26.0874996,208.699997 C11.680678,208.699997 0,197.019319 0,182.612497 L0,26.0874996 C0,11.680678 11.680678,0 26.0874996,0 L273.918746,0 C288.325568,0 300.006246,11.680678 300.006246,26.0874996 L300.006246,182.612497 C300.006246,197.019319 288.325568,208.699997 273.918746,208.699997 L273.918746,208.699997 Z M13.0437498,84.7843738 L286.962496,84.7843738 L286.962496,58.6968741 L13.0437498,58.6968741 L13.0437498,84.7843738 L13.0437498,84.7843738 Z M286.962496,26.0874996 C286.962496,18.8873497 281.118896,13.0437498 273.918746,13.0437498 L26.0874996,13.0437498 C18.8873497,13.0437498 13.0437498,18.8873497 13.0437498,26.0874996 L13.0437498,45.6531243 L286.962496,45.6531243 L286.962496,26.0874996 L286.962496,26.0874996 Z M286.962496,97.8281236 L13.0437498,97.8281236 L13.0437498,182.612497 C13.0437498,189.812647 18.8873497,195.656247 26.0874996,195.656247 L273.918746,195.656247 C281.118896,195.656247 286.962496,189.812647 286.962496,182.612497 L286.962496,97.8281236 L286.962496,97.8281236 Z M163.046873,136.959373 L136.959373,136.959373 C133.352776,136.959373 130.437498,134.044095 130.437498,130.437498 C130.437498,126.837423 133.352776,123.915623 136.959373,123.915623 L163.046873,123.915623 C166.653469,123.915623 169.568748,126.837423 169.568748,130.437498 C169.568748,134.044095 166.653469,136.959373 163.046873,136.959373 L163.046873,136.959373 Z M104.349998,136.959373 L45.6531243,136.959373 C42.0465275,136.959373 39.1312494,134.044095 39.1312494,130.437498 C39.1312494,126.837423 42.0465275,123.915623 45.6531243,123.915623 L104.349998,123.915623 C107.956595,123.915623 110.871873,126.837423 110.871873,130.437498 C110.871873,134.044095 107.956595,136.959373 104.349998,136.959373 L104.349998,136.959373 Z M45.6531243,156.524998 L84.7843738,156.524998 C88.3909706,156.524998 91.3062487,159.446798 91.3062487,163.046873 C91.3062487,166.653469 88.3909706,169.568748 84.7843738,169.568748 L45.6531243,169.568748 C42.0465275,169.568748 39.1312494,166.653469 39.1312494,163.046873 C39.1312494,159.446798 42.0465275,156.524998 45.6531243,156.524998 L45.6531243,156.524998 Z" id="Shape" sketch:type="MSShapeGroup"></path>
        </g>
    </g>
</svg>