<?xml version="1.0" encoding="UTF-8" standalone="no"?>
<svg width="294px" height="294px" viewBox="0 0 294 294" version="1.1" xmlns="http://www.w3.org/2000/svg" xmlns:xlink="http://www.w3.org/1999/xlink" xmlns:sketch="http://www.bohemiancoding.com/sketch/ns">
    <!-- Generator: Sketch 3.3.2 (12043) - http://www.bohemiancoding.com/sketch -->
    <title>Shape</title>
    <desc>Created with Sketch.</desc>
    <defs></defs>
    <g id="Page-1" stroke="none" stroke-width="1" fill="none" fill-rule="evenodd" sketch:type="MSPage">
        <g id="tags" sketch:type="MSLayerGroup" fill="#FFFFFF">
            <path d="M293.974468,153.082979 L293.974468,153.217021 C293.974468,155.259574 292.953191,157.002128 291.453191,158.170213 L170.565957,279.057447 C168.134043,281.489362 164.195745,281.489362 161.751064,279.057447 C159.319149,276.619149 159.319149,272.674468 161.751064,270.242553 L281.208511,150.785106 L281.208511,108.53617 C281.208511,105.012766 284.074468,102.153191 287.591489,102.153191 C291.121277,102.153191 293.974468,105.012766 293.974468,108.53617 L293.974468,153.044681 C293.974468,153.057447 293.974468,153.06383 293.974468,153.082979 L293.974468,153.082979 Z M120.421277,290.904255 C120.217021,291.210638 120.082979,291.555319 119.814894,291.823404 C118.557447,293.074468 116.897872,293.655319 115.251064,293.617021 C113.604255,293.655319 111.944681,293.074468 110.687234,291.823404 C110.419149,291.555319 110.291489,291.210638 110.080851,290.904255 L3.09574468,183.912766 C2.7893617,183.708511 2.45106383,183.574468 2.17659574,183.306383 C0.919148936,182.048936 0.35106383,180.395745 0.382978723,178.748936 C0.344680851,177.102128 0.919148936,175.442553 2.17659574,174.185106 C2.45106383,173.917021 2.7893617,173.789362 3.09574468,173.578723 L148.602128,28.0723404 C149.770213,26.5787234 151.506383,25.5510638 153.548936,25.5510638 L153.682979,25.5510638 L153.721277,25.5510638 L179.438298,25.5510638 C180.287234,15.9638298 184.2,7.55106383 190.097872,2.04255319 L190.2,2.15744681 C191.444681,0.836170213 193.155319,0.0191489362 195.038298,0.0191489362 C198.817021,0.0191489362 201.880851,3.28723404 201.880851,7.31489362 C201.880851,9.70851064 200.731915,11.7255319 199.065957,13.0531915 C196.008511,15.8744681 193.831915,20.3234043 193.104255,25.5510638 L223.582979,25.5510638 L223.634043,25.5510638 L223.761702,25.5510638 C225.804255,25.5510638 227.553191,26.5723404 228.708511,28.0723404 L265.921277,65.2851064 C267.414894,66.4531915 268.442553,68.1957447 268.442553,70.2382979 L268.442553,70.3723404 L268.442553,70.4106383 L268.442553,140.27234 L268.442553,140.317021 L268.442553,140.451064 C268.442553,142.493617 267.421277,144.23617 265.921277,145.397872 L120.421277,290.904255 L120.421277,290.904255 Z M255.676596,72.6702128 L221.329787,38.3234043 L194.438298,38.3234043 C195.561702,41.1574468 197.144681,43.5702128 199.065957,45.3446809 L199.065957,45.3446809 C199.32766,45.5553191 199.653191,45.6829787 199.876596,45.9319149 L199.991489,45.8170213 C206.63617,52.0276596 211.002128,61.8255319 211.002128,72.9702128 C211.002128,73.2382979 210.938298,73.4744681 210.925532,73.7361702 C218.565957,78.1468085 223.768085,86.3106383 223.768085,95.7702128 C223.768085,109.870213 212.33617,121.302128 198.23617,121.302128 C184.13617,121.302128 172.704255,109.870213 172.704255,95.7702128 C172.704255,82.0659574 183.523404,70.9723404 197.087234,70.3531915 C196.512766,64.6851064 194.27234,59.8340426 191.029787,56.8340426 C190.768085,56.6234043 190.442553,56.4957447 190.206383,56.2468085 L190.104255,56.3617021 C185.355319,51.9255319 181.851064,45.606383 180.191489,38.3234043 L155.980851,38.3234043 L15.5553191,178.748936 L115.251064,278.444681 L255.676596,138.019149 L255.676596,72.6702128 L255.676596,72.6702128 Z M191.023404,89.112766 C192.606383,87.6510638 193.902128,85.6851064 194.961702,83.4765957 C189.504255,84.9319149 185.46383,89.8595745 185.46383,95.7638298 C185.46383,102.810638 191.182979,108.529787 198.229787,108.529787 C205.282979,108.529787 210.995745,102.810638 210.995745,95.7638298 C210.995745,92.7446809 209.910638,90.012766 208.155319,87.8234043 C204.229787,97.6851064 199.876596,100.008511 199.876596,100.008511 C198.644681,101.329787 196.934043,102.140426 195.038298,102.140426 C191.259574,102.140426 188.208511,98.8723404 188.208511,94.8446809 C188.208511,92.4638298 189.351064,90.4468085 191.023404,89.112766 L191.023404,89.112766 Z M72.3957447,167.802128 C74.8340426,165.370213 78.7787234,165.370213 81.2106383,167.802128 L126.204255,212.795745 C128.63617,215.22766 128.63617,219.17234 126.204255,221.610638 C123.77234,224.042553 119.821277,224.042553 117.389362,221.610638 L72.3957447,176.617021 C69.9638298,174.185106 69.9638298,170.240426 72.3957447,167.802128 L72.3957447,167.802128 Z M97.9276596,142.270213 C100.365957,139.838298 104.310638,139.838298 106.742553,142.270213 L151.73617,187.26383 C154.161702,189.695745 154.161702,193.640426 151.73617,196.078723 C149.304255,198.510638 145.353191,198.510638 142.921277,196.078723 L97.9276596,151.085106 C95.4957447,148.653191 95.4957447,144.708511 97.9276596,142.270213 L97.9276596,142.270213 Z" id="Shape" sketch:type="MSShapeGroup"></path>
        </g>
    </g>
</svg>