<?xml version="1.0" encoding="UTF-8" standalone="no"?>
<svg width="300px" height="268px" viewBox="0 0 300 268" version="1.1" xmlns="http://www.w3.org/2000/svg" xmlns:xlink="http://www.w3.org/1999/xlink" xmlns:sketch="http://www.bohemiancoding.com/sketch/ns">
    <!-- Generator: Sketch 3.3.2 (12043) - http://www.bohemiancoding.com/sketch -->
    <title>Shape</title>
    <desc>Created with Sketch.</desc>
    <defs></defs>
    <g id="Page-1" stroke="none" stroke-width="1" fill="none" fill-rule="evenodd" sketch:type="MSPage">
        <g id="wallet" sketch:type="MSLayerGroup" fill="#FFFFFF">
            <path d="M299.998553,234.781476 L299.998553,234.781476 C299.998553,252.794433 285.402971,267.390015 267.390015,267.390015 L267.390015,267.390015 L32.6085384,267.390015 C14.5955818,267.390015 0,252.794433 0,234.781476 L0,45.6519537 C0,31.2455015 11.6803784,19.565123 26.0868307,19.565123 L26.0868307,19.565123 L157.636196,19.565123 L210.455507,0.430432707 C213.801143,-0.789126629 217.505473,0.939125905 218.725032,4.27171853 L224.288049,19.565123 L247.824892,19.565123 C262.231344,19.565123 273.911722,31.2455015 273.911722,45.6519537 L273.911722,58.6953691 C288.318175,58.6953691 299.998553,70.3757475 299.998553,84.7821998 L299.998553,234.781476 L299.998553,234.781476 Z M26.0868307,32.6085384 L26.0868307,32.6085384 C18.8868654,32.6085384 13.0434153,38.4519884 13.0434153,45.6519537 C13.0434153,52.851919 18.8868654,58.6953691 26.0868307,58.6953691 L48.5541136,58.6953691 L49.7867164,58.6953691 C49.8714986,58.6627605 49.9236722,58.5910217 50.0084544,58.5584132 L121.629848,32.6085384 L26.0868307,32.6085384 L26.0868307,32.6085384 Z M215.725046,33.7889675 L208.798993,14.7194942 L208.792471,14.7194942 L195.416449,19.565123 L195.436014,19.565123 L159.475318,32.6085384 L159.410101,32.6085384 L87.4169697,58.6953691 L224.777177,58.6953691 L215.725046,33.7889675 L215.725046,33.7889675 Z M260.868307,45.6519537 C260.868307,38.4519884 255.024857,32.6085384 247.824892,32.6085384 L229.022808,32.6085384 L238.505371,58.6953691 L260.868307,58.6953691 L260.868307,45.6519537 L260.868307,45.6519537 Z M273.911722,71.7387844 L26.0868307,71.7387844 C21.3129407,71.7387844 16.8912229,70.3627041 13.0434153,68.1192367 L13.0434153,234.781476 C13.0434153,245.587946 21.8085905,254.346599 32.6085384,254.346599 L267.390015,254.346599 C278.196484,254.346599 286.955138,245.587946 286.955138,234.781476 L286.955138,189.129523 L260.868307,189.129523 C246.461855,189.129523 234.781476,177.449144 234.781476,163.042692 C234.781476,148.63624 246.461855,136.955861 260.868307,136.955861 L286.955138,136.955861 L286.955138,84.7821998 C286.955138,77.5822345 281.111688,71.7387844 273.911722,71.7387844 L273.911722,71.7387844 Z M286.955138,176.086107 L286.955138,149.999277 L260.868307,149.999277 C253.668342,149.999277 247.824892,155.842727 247.824892,163.042692 C247.824892,170.242657 253.668342,176.086107 260.868307,176.086107 L286.955138,176.086107 L286.955138,176.086107 Z M260.868307,156.520984 L273.911722,156.520984 L273.911722,169.5644 L260.868307,169.5644 L260.868307,156.520984 L260.868307,156.520984 Z" id="Shape" sketch:type="MSShapeGroup"></path>
        </g>
    </g>
</svg>